PathFileType  4	(X/Y/Z) C:\Users\antoi\Documents\MyRepositories\mobilecap\ResultsAnalysis
DataRate	CameraRate	NumFrames	NumMarkers	Units	OrigDataRate	OrigDataStartFrame	OrigNumFrames
100.0	100.0	6	51	mm	100.0	1174	1341
Frame#	Time	r_knee			r_shank_antsup			r_ankle			r_calc			r_5meta			r_toe			L_knee			L_shank_antsup			L_ankle			L_calc			L_5meta			L_toe			r_sh2			r_sh3			r_sh4			L_sh2			L_sh3			r_thigh1			r_thigh2			r_thigh3			r_thigh4			r_thigh5			L_thigh1			L_thigh2			L_thigh3			L_thigh4			r.ASIS			r.PSIS			L.ASIS			L.PSIS			C7			R_Shoulder			L_Shoulder			R_Sternum			L_Sternum			R_humerus			R_elbow_med			R_elbow_lat			R_forearm			R_wrist_radius			R_wrist_ulna			L_humerus			L_elbow_med			L_elbow_lat			L_forearm			L_wrist_radius			L_wrist_ulna			R_HJC			L_HJC			R_HJC_reg			L_HJC_reg			
		X1	Y1	Z1	X2	Y2	Z2	X3	Y3	Z3	X4	Y4	Z4	X5	Y5	Z5	X6	Y6	Z6	X7	Y7	Z7	X8	Y8	Z8	X9	Y9	Z9	X10	Y10	Z10	X11	Y11	Z11	X12	Y12	Z12	X13	Y13	Z13	X14	Y14	Z14	X15	Y15	Z15	X16	Y16	Z16	X17	Y17	Z17	X18	Y18	Z18	X19	Y19	Z19	X20	Y20	Z20	X21	Y21	Z21	X22	Y22	Z22	X23	Y23	Z23	X24	Y24	Z24	X25	Y25	Z25	X26	Y26	Z26	X27	Y27	Z27	X28	Y28	Z28	X29	Y29	Z29	X30	Y30	Z30	X31	Y31	Z31	X32	Y32	Z32	X33	Y33	Z33	X34	Y34	Z34	X35	Y35	Z35	X36	Y36	Z36	X37	Y37	Z37	X38	Y38	Z38	X39	Y39	Z39	X40	Y40	Z40	X41	Y41	Z41	X42	Y42	Z42	X43	Y43	Z43	X44	Y44	Z44	X45	Y45	Z45	X46	Y46	Z46	X47	Y47	Z47	X48	Y48	Z48	X49	Y49	Z49	X50	Y50	Z50	X51	Y51	Z51	

1174	11.73000000	-83.22446	444.75868	-318.45533	-37.37871	388.34617	-326.01884	-252.91025	94.43368	-357.26572	-317.13749	57.86481	-407.75233	-141.18135	39.90101	-311.14453	-97.40526	59.46190	-364.61537	-122.44454	470.46268	-760.50578	-101.57260	391.02129	-795.29925	-249.17234	102.63223	-793.60828	-309.87062	58.45041	-748.47145	-135.21728	40.95304	-835.83330	-90.45925	59.92457	-782.50587	-86.67447	284.32689	-348.23652	-102.58963	409.45851	-291.09395	-148.50647	302.40903	-293.17918	-181.14922	429.24530	-781.97769	-223.45958	315.97625	-797.46722	-226.68941	709.42246	-372.37650	-139.68081	642.18646	-359.10084	-141.03563	614.00479	-296.90256	-271.73322	669.61419	-278.81553	-187.43232	592.85923	-272.33189	-304.10446	709.61164	-673.05011	-217.13813	613.51802	-733.11274	-388.00897	631.51483	-670.67061	-293.18641	533.96753	-697.62246	-260.87676	768.49769	-356.17796	-428.19960	857.04513	-434.13692	-271.13512	733.42848	-584.58337	-429.45957	850.76403	-531.25465	-123.55020	1206.91883	-492.44938	-55.96606	1149.28229	-334.00096	-61.95984	1140.07620	-635.69875	-44.19205	1081.39015	-465.24599	-49.24237	1076.21187	-499.91878	-56.74006	968.25180	-191.11955	-107.11801	855.26411	-176.08795	-61.17455	892.74087	-134.29272	50.18335	917.00757	-217.24914	102.17395	947.68063	-297.25152	127.11043	916.15803	-275.61938	-56.90888	950.56905	-758.83439	-70.90275	820.22915	-735.28768	-50.99398	848.76638	-799.15819	63.98206	911.07639	-733.58806	121.19150	968.86701	-665.96089	146.19857	933.59074	-676.09732	-360.35813	715.11310	-378.64962	-375.28192	702.49208	-568.31666	-353.24911	714.02925	-383.04552	-355.22511	704.17698	-535.37914	
1175	11.74000000	-82.36580	443.99475	-317.90824	-36.36610	387.84412	-325.27267	-252.86152	94.43142	-357.26714	-317.12448	57.86036	-407.74798	-141.19186	39.87804	-311.12969	-97.38959	59.38699	-364.57830	-122.46825	470.09362	-760.59800	-101.40178	390.90741	-795.65688	-249.18806	102.68444	-793.56382	-309.79614	58.47628	-748.38043	-135.23216	40.92983	-835.82202	-90.44547	59.92381	-782.54961	-85.94801	283.64497	-348.06554	-101.58306	408.77860	-290.49965	-147.99265	301.98500	-292.70085	-180.83634	429.19532	-782.09008	-223.32981	315.98560	-797.27643	-229.69083	705.73056	-372.87277	-141.52962	640.34006	-358.67901	-142.53728	612.27022	-296.46711	-273.95621	666.40409	-278.01093	-188.62364	590.20224	-272.22315	-306.15328	707.20988	-672.16213	-218.13859	612.18535	-732.66999	-389.47081	628.53090	-670.83788	-293.55256	531.92750	-698.14874	-263.10490	763.79165	-355.52273	-429.98277	852.57577	-433.20726	-272.86576	728.91545	-583.09599	-430.83537	846.66057	-530.39163	-121.12308	1199.22904	-491.21280	-53.01828	1140.88032	-333.27542	-59.67563	1131.94331	-634.66987	-42.59239	1073.11029	-464.00100	-47.62745	1068.17978	-498.90437	-53.21453	959.88856	-190.95741	-103.48477	846.84598	-175.71201	-57.30564	884.31160	-134.05427	53.53841	908.91922	-217.64139	105.02340	939.91968	-297.81426	130.13243	908.24015	-276.47631	-54.25773	942.90881	-757.68635	-68.01633	812.48821	-734.11958	-48.04182	840.89720	-797.99594	66.47974	903.81437	-732.18828	123.16201	961.94746	-664.46551	148.37980	926.73001	-674.58258	-362.56419	710.59925	-377.78197	-377.08774	698.20041	-567.49462	-355.42923	709.26835	-382.78387	-356.76067	700.02834	-534.58492	
1176	11.75000000	-81.61017	443.27198	-317.34502	-35.51611	387.19292	-324.65024	-252.81528	94.44302	-357.28617	-317.10493	57.85847	-407.75572	-141.19805	39.85783	-311.12298	-97.34675	59.34313	-364.55591	-122.53133	469.53373	-760.32423	-101.15056	390.80180	-796.00683	-249.19460	102.76390	-793.51178	-309.74896	58.56453	-748.32334	-135.24111	40.92176	-835.78873	-90.42297	59.91698	-782.57421	-85.24855	282.97634	-347.75073	-100.78250	408.11836	-290.08422	-147.20796	301.25316	-292.69593	-180.41478	429.05580	-781.97006	-223.33476	316.10102	-796.87498	-232.45331	702.44317	-372.47440	-143.27263	638.55956	-357.97284	-144.07995	610.31628	-295.85625	-276.14916	662.88990	-277.21721	-190.05129	587.19826	-272.57151	-307.97126	704.76946	-671.54963	-219.07676	610.62582	-732.19131	-390.72222	625.43776	-670.90936	-293.85090	529.73858	-698.54198	-265.25383	759.19982	-354.94213	-431.74998	848.22619	-432.25409	-274.54438	724.65879	-581.96237	-432.30640	842.73034	-529.44595	-118.76492	1191.69058	-489.84326	-50.24152	1132.72311	-332.48131	-57.45939	1124.15191	-633.78605	-41.03903	1065.03325	-463.04357	-45.98528	1060.40205	-498.00451	-49.77327	951.73938	-190.78484	-99.98189	838.74865	-175.24252	-53.62640	876.12718	-133.94033	56.71978	901.30612	-217.81608	107.71078	932.51567	-298.36537	133.01002	900.78262	-277.20407	-51.76957	935.47946	-756.44549	-65.35780	805.05402	-733.07476	-45.25654	833.27106	-796.72694	68.77968	896.81150	-730.78850	124.89002	955.20626	-662.90088	150.33934	920.09649	-673.01789	-364.64752	706.14860	-377.07348	-378.88474	694.15072	-566.83348	-357.48801	704.59337	-382.56615	-358.35393	696.03059	-534.00261	
1177	11.76000000	-80.96491	442.58719	-316.83545	-34.75826	386.50225	-324.17510	-252.74370	94.44007	-357.37898	-317.04797	57.88462	-407.81139	-141.19820	39.86968	-311.12192	-97.28411	59.30919	-364.51882	-122.19514	469.09332	-760.06461	-100.68522	390.64048	-796.14410	-249.16401	102.84191	-793.42017	-309.74249	58.65708	-748.22737	-135.24233	40.93615	-835.74885	-90.39195	59.90088	-782.57385	-84.62539	282.42090	-347.34839	-100.12951	407.51217	-289.76176	-146.37961	300.42295	-292.79894	-179.89073	428.82659	-781.61850	-223.30441	316.08452	-796.57061	-235.02356	699.44968	-371.61005	-144.91910	636.79213	-357.13713	-145.60270	608.11493	-295.20686	-278.29519	659.12352	-276.46750	-191.39724	584.20190	-272.54481	-309.53991	702.25744	-671.14205	-219.97750	608.99137	-731.70284	-391.78870	622.24659	-671.05125	-294.21421	527.22670	-698.34182	-267.38018	754.72526	-354.38698	-433.25453	844.05849	-431.40398	-276.19498	720.62444	-581.15297	-433.79937	838.89951	-528.33439	-116.44495	1184.41524	-488.73335	-47.65281	1124.86713	-331.69713	-55.43183	1116.57102	-632.66725	-39.68480	1057.11494	-462.26247	-45.60515	1051.58484	-497.40261	-46.42471	943.80743	-190.59632	-96.58635	830.93154	-174.77122	-50.11687	868.24228	-133.78930	59.72791	894.05900	-217.96077	110.22728	925.47306	-298.85570	135.72363	893.86024	-277.72656	-49.47210	928.35880	-755.35479	-62.90338	797.89206	-732.16879	-42.73609	825.95759	-795.60608	70.87602	890.07246	-729.35494	126.54518	948.65716	-661.38157	152.09398	913.66456	-671.37908	-366.60699	701.80307	-376.47633	-380.67308	690.30911	-566.28058	-359.36778	700.27210	-382.13560	-360.22079	692.22223	-533.37998	
1178	11.77000000	-80.38445	441.83791	-316.46538	-34.02405	385.83637	-323.75381	-252.66507	94.40330	-357.53782	-316.96679	57.92860	-407.89570	-141.20397	39.89123	-311.11953	-97.21502	59.28335	-364.45917	-121.36075	468.83835	-760.00436	-99.93469	390.30856	-795.81424	-249.09538	102.90930	-793.30797	-309.74885	58.70347	-748.13573	-135.24032	40.97582	-835.70879	-90.33453	59.87967	-782.56183	-84.05083	281.96817	-347.03897	-99.51388	406.97113	-289.47357	-145.94480	300.09822	-292.35111	-179.21277	428.60760	-781.28403	-222.74945	315.69698	-796.68735	-237.27834	696.90631	-370.18395	-146.49596	634.97208	-356.33320	-147.04881	605.87639	-294.58669	-280.34548	655.33835	-275.79159	-192.61859	581.40862	-272.03176	-310.87749	699.60489	-670.54274	-220.69941	607.35988	-731.32400	-392.68203	619.05779	-671.22244	-294.58977	524.30932	-697.46988	-269.53570	750.32284	-353.79135	-434.62168	839.99134	-430.93023	-277.78342	716.72886	-580.42624	-435.17993	835.00700	-527.18995	-114.29372	1177.59011	-488.23212	-45.22542	1117.14789	-331.12924	-53.56790	1109.12868	-631.46007	-38.28637	1049.44102	-461.35177	-45.90457	1042.35695	-496.85855	-43.19589	936.17129	-190.41766	-93.30011	823.34824	-174.31715	-46.65923	860.59303	-133.55393	62.59895	886.98292	-218.28754	112.54221	918.78351	-299.27943	138.25097	887.32208	-278.15161	-47.37453	921.37761	-754.33855	-60.61762	790.88875	-731.29514	-40.53639	818.99910	-794.84988	72.77672	883.55786	-727.99419	128.01214	942.35148	-660.04665	153.67118	907.46996	-669.84313	-368.54728	697.53542	-375.97099	-382.33310	686.51522	-565.82401	-361.25447	696.29582	-381.60225	-362.13366	688.47021	-532.70959	
1179	11.78000000	-79.82110	441.10769	-316.04289	-33.32852	385.16366	-323.28714	-252.61805	94.34750	-357.70121	-316.90987	57.95433	-407.95015	-141.21987	39.89596	-311.11867	-97.14480	59.28170	-364.39792	-120.32804	468.52152	-759.93983	-99.00269	389.82116	-795.14596	-249.00607	103.00664	-793.24025	-309.75363	58.73347	-748.09652	-135.23787	41.03591	-835.64964	-90.23888	59.85893	-782.53803	-83.43296	281.47634	-346.82077	-98.92216	406.42615	-289.20522	-145.61297	299.78011	-291.88520	-178.26335	428.44320	-781.06818	-222.17150	314.89647	-796.21910	-239.26531	694.56244	-368.69693	-147.98879	633.13637	-355.60530	-148.39194	603.86205	-293.87622	-282.22608	651.79578	-275.10192	-193.76500	578.75439	-271.50445	-312.02730	696.88707	-669.80988	-221.11259	605.67763	-731.01847	-393.36809	615.95816	-671.34617	-294.57254	521.69492	-697.04309	-271.65932	746.01857	-353.00571	-436.26304	835.84120	-430.87777	-279.19522	712.94488	-579.71293	-436.38177	831.04516	-526.20188	-112.39208	1171.06133	-487.98859	-42.88876	1109.41598	-330.70425	-51.73226	1101.82709	-630.43611	-36.27810	1042.26913	-460.43130	-44.49930	1035.09807	-495.91867	-40.09245	928.84993	-190.19030	-90.13478	815.96305	-173.85898	-43.21604	853.10213	-133.23342	65.35677	880.06981	-218.61889	114.69543	912.36007	-299.63688	140.66438	881.04294	-278.55852	-45.39579	914.49253	-753.36729	-58.47470	784.01397	-730.43202	-38.43579	812.26093	-794.30546	74.46103	877.22158	-726.86144	129.20020	936.26247	-658.89338	155.05279	901.50641	-668.55120	-370.51173	693.28076	-375.57699	-383.69748	682.68929	-565.49641	-363.37211	692.14568	-381.32548	-363.55406	684.54491	-532.42417	
